<?xml version="1.0" ?><svg enable-background="new -192.832 142.121 464.245 291.201" id="Layer_1" version="1.1" viewBox="-192.832 142.121 464.245 291.201" xml:space="preserve" xmlns="http://www.w3.org/2000/svg" xmlns:xlink="http://www.w3.org/1999/xlink"><g id="Layer_1_1_"/><path d="M270.802,401.037c-0.859-4.843-2.82-12.022-7.286-18.721c-0.066-0.1-0.134-0.198-0.204-0.295  c-2.67-3.709-5.481-7.044-8.201-10.269c-1.096-1.299-2.185-2.59-3.25-3.893c-1.271-1.551-2.496-3.124-3.793-4.79  c-2.394-3.074-4.869-6.253-7.656-9.293c-2.65-2.892-5.418-5.44-8.095-7.906c-1.724-1.588-3.352-3.087-4.892-4.623  c-1.598-1.592-3.156-3.24-4.806-4.985c-2.432-2.572-4.946-5.231-7.697-7.812c-1.169-1.096-2.339-2.198-3.513-3.305  c-3.061-2.885-6.225-5.867-9.46-8.81c-0.232-0.212-0.477-0.413-0.729-0.603c-2.42-1.814-4.792-3.232-6.886-4.483  c-0.014-0.009-0.028-0.017-0.042-0.025c0.119-0.557,0.24-1.117,0.363-1.684c0.597-2.761,1.214-5.614,1.745-8.766  c0.278-1.21,1.259-2.838,2.389-4.715c1.113-1.85,2.361-3.922,3.423-6.377c1.394-2.311,2.689-4.617,3.947-6.854  c1.501-2.672,2.92-5.196,4.432-7.615c1.438-2.302,2.973-4.553,4.596-6.936c1.706-2.503,3.47-5.092,5.144-7.786  c1.837-2.955,3.438-5.923,4.985-8.795c1.269-2.354,2.467-4.578,3.741-6.702c0.819-1.366,1.645-2.726,2.469-4.084  c2.218-3.658,4.512-7.44,6.677-11.303c2.945-5.253,5.646-10.548,8.386-15.965c2.644-5.233,5.166-10.609,7.711-16.435  c1.35-3.089,2.696-6.398,4.12-10.131c3.6-0.902,6.903-3.813,7.581-8.691c0.006-0.045,0.012-0.09,0.018-0.136  c1.071-8.57-1.606-17.282-6.988-22.738c-4.222-4.28-9.826-6.313-15.818-5.743c-4.249,0.215-8.497,0.23-12.99,0.246  c-1.891,0.007-3.784,0.013-5.681,0.035c-3.946,0.045-7.895,0.225-11.714,0.399c-2.593,0.118-5.196,0.237-7.815,0.314  c-7.123,0.211-14.103,0.842-19.99,1.431c-0.14,0.014-0.279,0.031-0.418,0.051c-5.513,0.788-18.385,2.627-24.016,15.483  c-1.89,4.084-0.922,7.877,0.079,10.343c-0.727,1.664-1.388,3.524-1.7,5.505c-1.827,4.684-3.898,9.46-6.313,14.561  c-2.231,4.715-4.769,9.582-7.984,15.314c-1.229,2.192-2.348,4.383-3.429,6.503c-1.608,3.152-3.128,6.13-4.847,8.801  c-2.758,4.286-5.872,8.601-8.883,12.773l-1.124,1.559c-2.059,2.858-4.334,5.619-6.742,8.542c-1.38,1.674-2.807,3.405-4.202,5.172  c-1.393,1.762-2.756,3.55-4.118,5.338c-1.979,2.595-3.862,5.067-5.804,7.415c-1.493,0.942-2.988,1.897-4.473,2.847  c-1.926,1.231-3.836,2.452-5.706,3.619c-1.229,0.767-2.296,1.365-3.248,1.814c-0.083-0.727-0.184-1.471-0.315-2.226  c1.609-4.84,2.167-9.633,2.505-14.158c0.15-2,0.26-4.018,0.369-6.047c0.156-2.908,0.304-5.655,0.577-8.385  c0.006-0.055,0.011-0.11,0.016-0.166c0.442-5.319,0.949-11.608,1.351-17.923c0.229-3.591,0.185-7.049,0.142-10.393  c-0.034-2.657-0.066-5.167,0.038-7.604c0.233-5.498,0.415-11.374,0.555-17.965c0.051-2.406,0.257-4.902,0.477-7.545  c0.276-3.34,0.563-6.793,0.563-10.425c0-11.091-6.756-20.527-16.112-22.585c-6.391-1.651-11.763-2.791-16.891-3.583  c-4.845-0.749-9.61-1.116-14.22-1.472c-0.97-0.075-1.938-0.15-2.908-0.229c-1.245-0.1-2.488-0.206-3.732-0.312  c-4.271-0.363-8.688-0.739-13.158-0.903c-2.326-0.086-4.65-0.238-7.111-0.399c-3.086-0.202-6.278-0.411-9.517-0.481  c-2.478-0.055-4.948-0.061-7.336-0.067c-3.137-0.008-6.101-0.016-9.037-0.125c-0.609-0.021-1.214,0.011-1.814,0.098  c-0.17,0.025-0.339,0.054-0.507,0.087c-3.019-0.533-6.077-0.336-8.917,0.622c-4.833,1.628-8.609,5.195-10.672,10.069  c-2.853,6.055-2.208,13.307,1.919,21.563c0.287,0.573,0.627,1.117,1.018,1.625c2.263,2.942,4.08,6.207,6.003,9.664  c0.372,0.668,0.742,1.333,1.113,1.994c2.121,3.766,3.872,7.71,5.351,12.06c0.89,2.614,1.741,5.193,2.399,7.745  c-0.748,1.148-1.269,2.465-1.494,3.893c-0.563,3.56-1.069,7.178-1.559,10.678c-0.397,2.842-0.795,5.68-1.222,8.49  c-0.356,2.343-0.734,4.683-1.112,7.021c-0.638,3.946-1.297,8.026-1.848,12.115c-0.563,4.182-0.929,8.337-1.284,12.356  c-0.207,2.348-0.414,4.693-0.66,7.032c-0.037,0.348-0.055,0.697-0.055,1.046c0,2.177,0.066,4.039,0.129,5.839  c0.06,1.702,0.117,3.309,0.117,5.131c0,0.658,0.065,1.315,0.194,1.961c0.271,1.353,0.216,2.94-0.002,4.671  c-0.636-0.602-1.275-1.246-1.776-1.752l-0.466-0.47c-1.871-2.221-3.599-4.744-5.425-7.411c-1.121-1.637-2.281-3.331-3.52-5.018  c-1.278-1.74-2.582-3.409-3.843-5.023c-2.052-2.626-3.99-5.107-5.622-7.632c-1.603-2.48-3.064-5.157-4.612-7.99  c-1.049-1.92-2.134-3.906-3.299-5.891c-1.002-1.708-2.023-3.404-3.044-5.1c-1.82-3.022-3.539-5.876-5.154-8.799  c-1.344-2.431-2.606-4.9-3.942-7.515c-1.083-2.12-2.201-4.307-3.375-6.489c-1.713-4.016-3.696-7.513-5.617-10.899  c-1.159-2.042-2.253-3.972-3.208-5.883c-2.317-4.633-5.013-10.158-7.507-16.109c-0.641-1.943-1.228-3.899-1.847-5.964  c-1.138-3.793-2.315-7.716-3.862-11.586c-0.99-2.477-2.026-4.878-3.028-7.2c-1.396-3.236-2.716-6.293-3.818-9.325  c-0.273-0.75-0.634-1.466-1.078-2.13c-2.861-4.292-7.656-7.583-14.25-9.781c-1.02-0.34-2.087-0.513-3.162-0.513  c-8.215,0-14.908,0.203-21.061,0.64c-2.139,0.152-4.285,0.294-6.433,0.437c-4.6,0.305-9.356,0.621-14.063,1.03  c-6.353,0.553-13.108,1.121-19.766,1.458c-6.373,0.145-13.442,4.503-16.211,10.041c-0.491,0.981-1.411,1.804-3.132,3.292  c-0.974,0.843-2.078,1.797-3.225,2.944c-2.351,2.351-3.379,5.716-2.745,8.979c1.294,6.655,3.167,12.881,5,18.618  c2.152,6.74,4.304,12.61,6.578,17.946c2.374,5.567,5.086,10.927,7.709,16.11l0.443,0.877c1.045,2.064,2.027,4.204,3.066,6.468  c1.536,3.347,3.124,6.807,5.035,10.26c1.656,2.994,3.439,5.848,5.164,8.607c1.522,2.436,2.96,4.736,4.286,7.08  c1.436,2.539,2.752,5.239,4.145,8.098c1.269,2.604,2.582,5.297,4.008,7.912c1.672,3.135,3.501,5.966,5.27,8.705  c1.356,2.099,2.637,4.083,3.756,6.061c1.048,1.854,2.048,3.76,3.107,5.778c1.618,3.083,3.291,6.271,5.25,9.474  c3.012,4.922,6.174,9.868,9.396,14.7c0.365,0.548,0.784,1.059,1.249,1.524c1.563,1.563,2.867,3.168,4.324,5.325  c2.41,4.206,5.049,8.061,7.604,11.791c0.75,1.096,1.498,2.188,2.235,3.283c2.769,4.11,5.77,7.809,8.672,11.385  c0.86,1.06,1.718,2.116,2.567,3.182c1.22,1.53,2.403,3.145,3.654,4.853c2.348,3.205,4.776,6.52,7.741,9.663  c3.575,3.795,7.373,7.169,11.046,10.433c0.817,0.727,1.635,1.452,2.446,2.18c4.605,4.133,9.384,8.084,14.207,11.745  c3.778,2.867,7.695,5.315,11.483,7.683c1.291,0.807,2.584,1.615,3.871,2.439l0.234,0.15c4.906,3.146,9.979,6.398,15.44,9.351  c0.094,0.051,0.188,0.1,0.283,0.147c6.318,3.159,12.628,5.578,17.97,7.528c1.555,0.567,3.1,1.171,4.645,1.773  c4.381,1.71,8.912,3.478,13.911,4.631c5.031,1.16,9.9,1.51,14.61,1.849c1.657,0.118,3.315,0.236,4.966,0.395  c1.322,0.127,2.646,0.271,3.973,0.416c5.008,0.545,10.188,1.109,15.721,0.888c0.144-0.006,0.286-0.015,0.43-0.026  c7.895-0.657,16.319-4.09,22.536-9.183c7.857-6.436,11.551-15.627,10.159-25.252c-0.182-1.82-0.058-3.996,0.073-6.296  c0.117-2.058,0.251-4.391,0.182-6.821c-0.142-4.92-0.729-9.946-1.797-15.358c-0.64-4.715-0.341-9.56,0.841-13.83  c0.597-0.172,2.043-0.417,4.813-0.034c4.299,1.567,8.335,4.219,12.007,7.892c0.853,0.853,2.027,1.766,3.572,2.423  c1.335,1.998,3.241,4.097,6.12,5.536c1.185,0.593,2.249,1.266,3.085,1.946c3.755,6.093,7.585,11.107,11.397,14.92  c3.878,3.879,8.468,8.427,13.108,12.751c2.201,2.051,4.385,4.1,6.569,6.149c2.165,2.031,4.33,4.063,6.511,6.096l1.007,0.938  c3.866,3.602,7.864,7.326,11.712,11.174c0.182,0.181,0.369,0.354,0.563,0.521c4.464,3.826,10.181,6.687,16.528,8.271  c5.172,1.293,10.588,1.341,15.853,0.164c2.963,0.831,5.754,1.094,8.345,1.094c2.449,0,4.72-0.235,6.785-0.449  c1.819-0.188,3.538-0.367,5.164-0.367c0.302,0,0.604-0.014,0.904-0.041c2.954-0.269,6.049-0.395,9.325-0.528  c2.41-0.098,4.902-0.199,7.419-0.364c1.237-0.08,2.476-0.167,3.712-0.254c4.46-0.312,8.672-0.606,12.659-0.606  c5.223,0,8.42-2.215,10.137-3.405c0.155-0.107,0.309-0.222,0.476-0.324c1.308-0.666,2.453-1.611,3.354-2.771  C270.803,417.994,272.43,410.196,270.802,401.037z M250.905,410.718c-4.331,0.046-8.713,0.353-12.961,0.649  c-1.204,0.085-2.41,0.169-3.617,0.248c-2.273,0.148-4.642,0.245-6.932,0.338c-3.236,0.132-6.577,0.269-9.887,0.556  c-2.477,0.027-4.742,0.262-6.756,0.471c-4.151,0.432-6.425,0.605-8.782-0.403c-1.256-0.538-2.596-0.809-3.939-0.809  c-1.066,0-2.134,0.17-3.162,0.513c-2.721,0.908-5.553,1.04-8.188,0.381c-3.174-0.792-6.038-2.151-8.108-3.843  c-3.996-3.982-8.019-7.729-11.911-11.355l-1.002-0.934c-2.165-2.018-4.313-4.034-6.463-6.05c-2.2-2.065-4.401-4.13-6.619-6.197  c-4.401-4.101-8.656-8.315-12.6-12.26c-2.879-2.878-6.047-7.145-9.163-12.338c-0.421-0.701-0.926-1.349-1.504-1.927  c-2.155-2.154-4.769-4.07-7.781-5.706c-0.135-0.263-0.279-0.557-0.395-0.79l-0.32-0.648c-0.48-0.962-1.113-1.84-1.873-2.6  c-1.175-1.175-2.961-2.464-5.485-3.041c-5.507-4.945-11.623-8.559-18.22-10.757c-0.495-0.166-1.003-0.292-1.519-0.378  c-17.334-2.886-24.281,5.4-26.88,10.599c-0.212,0.424-0.393,0.861-0.543,1.311c-2.519,7.558-3.25,16.31-2.06,24.644  c0.026,0.184,0.058,0.365,0.094,0.547c0.882,4.408,1.364,8.434,1.475,12.303c0.045,1.574-0.053,3.293-0.157,5.111  c-0.168,2.945-0.358,6.282,0.034,9.807c0.016,0.139,0.033,0.276,0.055,0.414c0.265,1.722,0.239,4.32-3.026,6.994  c-3.055,2.502-7.477,4.337-11.323,4.706c-3.981,0.135-8.132-0.316-12.524-0.794c-1.412-0.154-2.821-0.308-4.23-0.442  c-1.811-0.174-3.627-0.305-5.443-0.436c-4.129-0.297-8.03-0.576-11.547-1.388c-3.581-0.826-7.251-2.258-11.137-3.774  c-1.684-0.657-3.367-1.313-5.058-1.93c-4.77-1.741-10.362-3.88-15.74-6.558c-4.752-2.578-9.252-5.464-14.014-8.517l-0.234-0.15  c-1.352-0.867-2.71-1.716-4.067-2.563c-3.567-2.229-6.936-4.335-9.991-6.653c-4.387-3.331-8.741-6.931-12.942-10.7  c-0.836-0.751-1.678-1.498-2.519-2.245c-3.5-3.11-6.807-6.048-9.776-9.199c-2.117-2.245-4.081-4.926-6.161-7.765  c-1.315-1.796-2.676-3.652-4.149-5.5c-0.884-1.11-1.78-2.214-2.677-3.318c-2.747-3.385-5.342-6.582-7.612-9.952  c-0.766-1.138-1.543-2.272-2.322-3.411c-2.498-3.648-4.857-7.094-6.903-10.698c-0.118-0.208-0.244-0.411-0.376-0.61  c-2.053-3.08-4.016-5.556-6.276-7.905c-2.9-4.37-5.744-8.83-8.46-13.269c-1.615-2.639-3.064-5.401-4.599-8.326  c-1.083-2.065-2.205-4.202-3.407-6.329c-1.409-2.492-2.913-4.819-4.366-7.07c-1.617-2.503-3.144-4.867-4.466-7.345  c-1.251-2.295-2.408-4.668-3.632-7.181c-1.464-3.004-2.978-6.111-4.717-9.185c-1.542-2.724-3.164-5.32-4.732-7.83  c-1.658-2.654-3.225-5.16-4.624-7.689c-1.547-2.797-2.913-5.772-4.358-8.922c-1.072-2.336-2.181-4.751-3.397-7.155l-0.445-0.878  c-2.592-5.121-5.04-9.957-7.155-14.92c-2.026-4.755-3.964-10.05-5.924-16.188c-1.115-3.491-2.242-7.162-3.195-10.921  c1.896-1.736,3.932-3.882,5.616-6.902c6.942-0.354,13.853-0.935,20.341-1.5c4.502-0.392,9.155-0.7,13.654-0.999  c2.178-0.145,4.353-0.289,6.523-0.442c5.232-0.371,10.95-0.56,17.875-0.586c1.04,0.43,1.742,0.833,2.166,1.125  c1.125,2.924,2.354,5.773,3.551,8.545c0.949,2.198,1.93,4.472,2.819,6.697c1.218,3.047,2.218,6.382,3.277,9.912  c0.67,2.233,1.363,4.542,2.145,6.887c0.077,0.231,0.163,0.459,0.256,0.684c2.768,6.641,5.709,12.674,8.222,17.7  c1.19,2.379,2.466,4.63,3.7,6.806c1.781,3.141,3.464,6.107,4.755,9.207c0.13,0.313,0.277,0.619,0.438,0.917  c1.146,2.116,2.235,4.245,3.387,6.5c1.35,2.641,2.746,5.373,4.248,8.088c1.795,3.247,3.69,6.395,5.524,9.44  c0.983,1.632,1.966,3.264,2.93,4.906c1.009,1.719,1.974,3.485,2.995,5.355c1.653,3.027,3.363,6.157,5.367,9.258  c2.119,3.279,4.427,6.233,6.66,9.09c1.225,1.567,2.381,3.048,3.481,4.547c1.044,1.422,2.062,2.908,3.139,4.481  c2.116,3.091,4.305,6.286,6.968,9.394c0.167,0.193,0.34,0.382,0.521,0.563l0.697,0.7c4.19,4.231,11.992,12.104,24.254,8.601  c1.634-0.467,3.122-1.343,4.324-2.544c0.373-0.373,0.768-0.722,1.16-1.073c0.587-0.527,1.252-1.124,1.943-1.814  c1.396-1.396,2.347-3.174,2.734-5.11l0.217-1.074c1.015-5.011,2.158-10.654,1.156-16.847c-0.015-1.795-0.071-3.385-0.125-4.93  c-0.054-1.543-0.106-3.009-0.115-4.629c0.233-2.271,0.435-4.547,0.636-6.825c0.35-3.97,0.681-7.719,1.183-11.446  c0.516-3.826,1.153-7.774,1.771-11.593c0.388-2.401,0.776-4.803,1.141-7.208c0.439-2.886,0.848-5.802,1.256-8.722  c0.289-2.065,0.584-4.172,0.891-6.265c2.409-2.191,3.62-5.444,3.183-8.72c-0.796-5.966-2.557-11.445-4.293-16.546  c-1.882-5.531-4.125-10.579-6.858-15.431c-0.354-0.63-0.708-1.265-1.063-1.903c-1.946-3.497-4.132-7.428-6.979-11.274  c-0.307-0.661-0.536-1.223-0.706-1.696c2.65,0.764,5.447,0.418,7.795-0.93c1.472,0.014,2.931,0.018,4.368,0.022  c2.292,0.006,4.663,0.012,6.949,0.063c2.807,0.062,5.645,0.247,8.65,0.444c2.492,0.163,5.069,0.332,7.682,0.428  c3.989,0.146,7.976,0.486,12.198,0.845c1.271,0.108,2.544,0.216,3.816,0.319c0.993,0.081,1.986,0.157,2.979,0.234  c4.431,0.342,8.615,0.666,12.706,1.297c4.506,0.696,9.315,1.723,15.135,3.232c0.377,0.483,0.922,1.691,0.922,3.17  c0,2.805-0.24,5.704-0.494,8.773c-0.234,2.828-0.477,5.753-0.541,8.773c-0.137,6.447-0.313,12.185-0.541,17.538  c-0.127,2.99-0.09,5.898-0.054,8.711c0.04,3.104,0.077,6.037-0.103,8.866c-0.389,6.111-0.883,12.245-1.315,17.45  c-0.314,3.16-0.479,6.24-0.641,9.22c-0.102,1.888-0.201,3.766-0.342,5.629c-0.328,4.396-0.823,7.945-2.172,10.979  c-1.085,2.44-1.148,5.211-0.179,7.697c0.154,0.544,0.3,2.048,0.397,3.049c0.404,4.153,1.016,10.428,6.123,14.442  c1.991,1.563,5.33,3.276,10.133,2.801c7.148-0.177,12.975-3.248,17.282-5.935c1.933-1.205,3.906-2.466,5.896-3.738  c1.876-1.199,3.767-2.407,5.649-3.584c0.869-0.544,1.649-1.217,2.314-1.997c2.64-3.099,5.084-6.307,7.448-9.408  c1.291-1.695,2.583-3.391,3.903-5.062c1.29-1.633,2.617-3.242,3.944-4.853c2.506-3.042,5.098-6.186,7.535-9.571l1.115-1.545  c3.164-4.385,6.437-8.92,9.483-13.654c2.26-3.513,4.081-7.082,5.842-10.534c1.039-2.037,2.021-3.96,3.058-5.809  c3.446-6.144,6.185-11.4,8.619-16.542c2.844-6.009,5.26-11.632,7.384-17.188c0.347-0.904,0.559-1.853,0.632-2.816  c0.241-0.682,0.885-1.962,1.247-2.684l0.205-0.409c1.871-3.742,1.296-7.265,0.423-9.781c1.147-0.656,3.088-1.229,6.607-1.742  c5.495-0.549,11.953-1.129,18.371-1.319c2.725-0.08,5.436-0.203,8.136-0.326c3.819-0.174,7.427-0.338,11.033-0.379  c1.844-0.021,3.684-0.028,5.521-0.034c4.604-0.016,9.364-0.033,14.169-0.284c-1.004,1.014-1.798,2.251-2.302,3.653  c-2.275,6.337-4.241,11.364-6.187,15.819c-2.394,5.48-4.76,10.524-7.232,15.418c-2.636,5.213-5.229,10.298-7.982,15.208  c-1.998,3.564-4.103,7.036-6.332,10.711c-0.841,1.386-1.682,2.774-2.517,4.166c-1.511,2.518-2.877,5.052-4.198,7.503  c-1.468,2.723-2.854,5.295-4.364,7.726c-1.453,2.338-3.023,4.643-4.686,7.082c-1.661,2.438-3.38,4.959-5.027,7.596  c-1.76,2.815-3.36,5.663-4.908,8.417c-1.35,2.401-2.624,4.67-3.981,6.89c-0.293,0.479-0.544,0.981-0.753,1.501  c-0.529,1.323-1.406,2.781-2.336,4.324c-1.765,2.932-3.961,6.58-4.887,11.212c-0.021,0.105-0.041,0.211-0.059,0.317  c-0.46,2.764-1.015,5.325-1.602,8.037c-0.61,2.823-1.241,5.742-1.781,8.979c-0.613,3.684,0.876,7.402,3.864,9.644  c2.42,1.814,4.792,3.232,6.886,4.483c1.696,1.014,3.307,1.977,4.79,3.054c2.979,2.717,5.949,5.517,8.825,8.229  c1.188,1.118,2.37,2.233,3.551,3.34c2.311,2.167,4.513,4.496,6.844,6.962c1.678,1.774,3.412,3.608,5.219,5.41  c1.819,1.813,3.671,3.519,5.461,5.168c2.48,2.285,4.823,4.442,6.903,6.712c2.244,2.447,4.369,5.176,6.618,8.065  c1.314,1.688,2.673,3.433,4.098,5.172c1.125,1.375,2.277,2.741,3.436,4.115c2.547,3.021,4.955,5.876,7.146,8.904  c1.942,2.965,3.411,6.856,4.144,10.983C251.672,407.696,251.422,409.514,250.905,410.718z"/></svg>